# xmcd
#
# Track frame offsets:
#	150
#	14252
#	22580
#	29055
#	35465
#	45925
#	54347
#	65322
#	77770
#	93230
#	102045
#	109420
#	121607
#	135640
#	158327
#	175135
#
# Disc length: 2435 seconds
#
# Revision: 1
# Processed by: cddbd v1.5.1PL0 Copyright (c) Steve Scherf et al.
# Submitted via: CDex 1.50Beta5
#
DISCID=b1098110
DTITLE=和田アキ子 - 和田アキ子リサイタル〜日劇に於ける実況録音〜
DYEAR=2002
DGENRE=Pop
TTITLE0=夏の夜のサンバ
TTITLE1=その時わたしに何が起こったの?
TTITLE2=卒業させてよ
TTITLE3=孤独
TTITLE4=あなたにありがとう
TTITLE5=どしゃぶりの雨の中で
TTITLE6=夜明けの夢
TTITLE7=天使になれない
TTITLE8=スピニング・ホイール
TTITLE9=好きにならずにいられない
TTITLE10=ブラウド・メアリー
TTITLE11=ユー・アー・マイ・サンシャイン
TTITLE12=黒い炎
TTITLE13=この命奪って
TTITLE14=あの鐘を鳴らすのはあなた
TTITLE15=悪い奴
EXTD=
EXTT0=
EXTT1=
EXTT2=
EXTT3=
EXTT4=
EXTT5=
EXTT6=
EXTT7=
EXTT8=
EXTT9=
EXTT10=
EXTT11=
EXTT12=
EXTT13=
EXTT14=
EXTT15=
PLAYORDER=
